<svg version="1.1" xmlns="http://www.w3.org/2000/svg" xmlns:xlink="http://www.w3.org/1999/xlink" width="330" height="394"><defs><linearGradient x1="354.56036" y1="79.01039" x2="354.56036" y2="297.01039" gradientUnits="userSpaceOnUse" id="color-1"><stop offset="0" stop-color="#a8a8a8"/><stop offset="1" stop-color="#000000"/></linearGradient><linearGradient x1="510.55899" y1="79.01039" x2="510.55899" y2="471.01039" gradientUnits="userSpaceOnUse" id="color-2"><stop offset="0" stop-color="#a8a8a8"/><stop offset="1" stop-color="#000000"/></linearGradient></defs><g transform="translate(-250.05899,-78.01039)"><g data-paper-data="{&quot;isPaintingLayer&quot;:true}" fill="none" fill-rule="nonzero" stroke="none" stroke-width="none" stroke-linecap="none" stroke-linejoin="miter" stroke-miterlimit="10" stroke-dasharray="" stroke-dashoffset="0" font-family="none" font-weight="none" font-size="none" text-anchor="none" style="mix-blend-mode: normal"><g data-paper-data="{&quot;origPos&quot;:null}"><path d="M460.02074,358.01039c0,0 -39.42471,-13.03572 -61.83489,-46.22617c-20.60862,-30.52225 -17.17877,-82.77383 -17.17877,-82.77383" data-paper-data="{&quot;origPos&quot;:null}" fill="none" stroke="#00ff94" stroke-width="5.5" stroke-linecap="round"/><path d="M450.21202,375.09005c0,0 -39.67067,-11.14933 -62.7449,-43.25499c-21.21928,-29.52467 -18.85363,-81.91448 -18.85363,-81.91448" data-paper-data="{&quot;origPos&quot;:null,&quot;origRot&quot;:0}" fill="none" stroke="#ff0000" stroke-width="5.5" stroke-linecap="round"/><path d="M490.05899,357.01039c0,0 -39.42471,-13.03572 -61.83489,-46.22617c-20.60862,-30.52225 -17.17877,-82.77383 -17.17877,-82.77383" data-paper-data="{&quot;origPos&quot;:null}" fill="none" stroke="#0057ff" stroke-width="5.5" stroke-linecap="round"/><path d="M251.05899,297.01039v-218h207.00273v218z" data-paper-data="{&quot;origPos&quot;:null}" fill="url(#color-1)" stroke="#000000" stroke-width="2" stroke-linecap="butt"/><path d="M269.39407,279.01039v-187h188.66766v187z" data-paper-data="{&quot;origPos&quot;:null}" fill="#000000" stroke="#000000" stroke-width="2" stroke-linecap="butt"/></g><path d="M442.05899,471.01039v-392h137v392z" data-paper-data="{&quot;origPos&quot;:null}" fill="url(#color-2)" stroke="#000000" stroke-width="2" stroke-linecap="butt"/></g></g></svg>