<svg version="1.1" xmlns="http://www.w3.org/2000/svg" xmlns:xlink="http://www.w3.org/1999/xlink" width="456.53516" height="394.42994"><defs><linearGradient x1="283.02383" y1="78.58045" x2="283.02383" y2="296.58045" gradientUnits="userSpaceOnUse" id="color-1"><stop offset="0" stop-color="#a8a8a8"/><stop offset="1" stop-color="#000000"/></linearGradient><linearGradient x1="510.55899" y1="79.01039" x2="510.55899" y2="471.01039" gradientUnits="userSpaceOnUse" id="color-2"><stop offset="0" stop-color="#a8a8a8"/><stop offset="1" stop-color="#000000"/></linearGradient></defs><g transform="translate(-123.52383,-77.58045)"><g data-paper-data="{&quot;isPaintingLayer&quot;:true}" fill="none" fill-rule="nonzero" stroke="none" stroke-width="none" stroke-linecap="none" stroke-linejoin="miter" stroke-miterlimit="10" stroke-dasharray="" stroke-dashoffset="0" font-family="none" font-weight="none" font-size="none" text-anchor="none" style="mix-blend-mode: normal"><path d="M444.52383,357.58045c0,0 -60.37425,-13.03572 -94.69276,-46.22617c-31.55963,-30.52225 -26.30724,-82.77383 -26.30724,-82.77383" data-paper-data="{&quot;origPos&quot;:null}" fill="none" stroke="#00ff94" stroke-width="5.5" stroke-linecap="round"/><path d="M429.50296,374.66008c0,0 -60.75091,-11.14933 -96.08633,-43.25499c-32.4948,-29.52467 -28.87208,-81.91448 -28.87208,-81.91448" data-paper-data="{&quot;origPos&quot;:null,&quot;origRot&quot;:0}" fill="none" stroke="#ff0000" stroke-width="5.5" stroke-linecap="round"/><path d="M490.52383,356.58045c0,0 -60.37425,-13.03572 -94.69276,-46.22617c-31.55963,-30.52225 -26.30724,-82.77383 -26.30724,-82.77383" data-paper-data="{&quot;origPos&quot;:null}" fill="none" stroke="#0057ff" stroke-width="5.5" stroke-linecap="round"/><path d="M124.52383,296.58045v-218h317v218z" data-paper-data="{&quot;origPos&quot;:null}" fill="url(#color-1)" stroke="#000000" stroke-width="2" stroke-linecap="butt"/><path d="M152.60181,278.58045v-187h288.92202v187z" data-paper-data="{&quot;origPos&quot;:null}" fill="#000000" stroke="#000000" stroke-width="2" stroke-linecap="butt"/><path d="M442.05899,471.01039v-392h137v392z" data-paper-data="{&quot;origPos&quot;:null}" fill="url(#color-2)" stroke="#000000" stroke-width="2" stroke-linecap="butt"/></g></g></svg>