<svg version="1.1" xmlns="http://www.w3.org/2000/svg" xmlns:xlink="http://www.w3.org/1999/xlink" width="629.79193" height="105.78305"><defs><radialGradient cx="-87.84849" cy="170.29506" r="39.25588" gradientUnits="userSpaceOnUse" id="color-1"><stop offset="0" stop-color="#33f900"/><stop offset="1" stop-color="#818181"/></radialGradient><radialGradient cx="-85.95977" cy="158.42013" r="21.33481" gradientUnits="userSpaceOnUse" id="color-2"><stop offset="0" stop-color="#35ff00"/><stop offset="1" stop-color="#28c200"/></radialGradient><radialGradient cx="-109.81257" cy="158.33617" r="19.91242" gradientUnits="userSpaceOnUse" id="color-3"><stop offset="0" stop-color="#35ff00"/><stop offset="1" stop-color="#28c200"/></radialGradient><linearGradient x1="-119.31715" y1="210.39622" x2="-119.31715" y2="191.63673" gradientUnits="userSpaceOnUse" id="color-4"><stop offset="0" stop-color="#000000"/><stop offset="1" stop-color="#000000" stop-opacity="0"/></linearGradient><linearGradient x1="-85.9794" y1="201.74537" x2="-91.4049" y2="183.78758" gradientUnits="userSpaceOnUse" id="color-5"><stop offset="0" stop-color="#000000"/><stop offset="1" stop-color="#000000" stop-opacity="0"/></linearGradient></defs><g transform="translate(122.40008,-105.08771)"><g data-paper-data="{&quot;isPaintingLayer&quot;:true}" fill="none" fill-rule="nonzero" stroke="none" stroke-width="none" stroke-linecap="butt" stroke-linejoin="miter" stroke-miterlimit="10" stroke-dasharray="" stroke-dashoffset="0" font-family="none" font-weight="none" font-size="none" text-anchor="none" style="mix-blend-mode: normal"><path d="M-121.40008,209.65142v-78.96176h4.58488v78.96176z" data-paper-data="{&quot;origPos&quot;:null}" fill="#818181" stroke="#000000" stroke-width="2"/><path d="M-116.19698,209.55094v-78.51175l56.69698,14.95521v47.62066z" data-paper-data="{&quot;origPos&quot;:null}" fill="url(#color-1)" stroke="#000000" stroke-width="2"/><path d="M-107.29459,178.26984l0.16875,-39.69941l42.50088,9.83626l-0.33749,28.3588z" data-paper-data="{&quot;origPos&quot;:null}" fill="url(#color-2)" stroke="#000000" stroke-width="2"/><text transform="translate(-108.76244,200.82627) rotate(-10.72957) scale(0.40011,0.43861) skewX(-20.96313)" font-size="40" xml:space="preserve" data-paper-data="{&quot;origRot&quot;:-1.30861,&quot;origPos&quot;:null}" fill="#000000" fill-rule="nonzero" stroke="none" stroke-width="1" stroke-linecap="butt" stroke-linejoin="miter" stroke-miterlimit="10" stroke-dasharray="" stroke-dashoffset="0" font-family="&quot;ヒラギノ角ゴ Pro W3&quot;, &quot;Hiragino Kaku Gothic Pro&quot;, Osaka, &quot;メイリオ&quot;, Meiryo, &quot;ＭＳ Ｐゴシック&quot;, &quot;MS PGothic&quot;" font-weight="normal" text-anchor="start" style="mix-blend-mode: normal"><tspan x="0" dy="0">DOOR</tspan></text><path d="M-111.41569,178.24859v-39.82483h3.20624v39.82483z" data-paper-data="{&quot;origPos&quot;:null}" fill="url(#color-3)" stroke="#000000" stroke-width="2"/><path d="M507.39185,131.74094c0,14.72017 -6.2438,26.65323 -13.94592,26.65323c-7.70212,0 -13.94592,-11.93306 -13.94592,-26.65323c0,-14.72017 6.2438,-26.65323 13.94592,-26.65323c7.70212,0 13.94592,11.93306 13.94592,26.65323z" fill="none" stroke="none" stroke-width="0"/><path d="M-116.66191,210.39622h-5.31049v-18.75949h5.31049z" data-paper-data="{&quot;origPos&quot;:null,&quot;origRot&quot;:0}" fill="url(#color-4)" stroke="none" stroke-width="0"/><path d="M-59.17909,193.42172l-56.85061,16.8973l0.07449,-19.9578l57.35061,-15.3973z" data-paper-data="{&quot;origPos&quot;:null,&quot;origRot&quot;:0}" fill="url(#color-5)" stroke="none" stroke-width="0"/></g></g></svg>