<svg version="1.1" xmlns="http://www.w3.org/2000/svg" xmlns:xlink="http://www.w3.org/1999/xlink" width="811.75376" height="435.6955" viewBox="0,0,811.75376,435.6955"><defs><linearGradient x1="237.3968" y1="15.38854" x2="237.3968" y2="313.30769" gradientUnits="userSpaceOnUse" id="color-1"><stop offset="0" stop-color="#52ff00"/><stop offset="1" stop-color="#000000"/></linearGradient><linearGradient x1="237.39683" y1="15.38854" x2="237.39683" y2="313.30769" gradientUnits="userSpaceOnUse" id="color-2"><stop offset="0" stop-color="#919191"/><stop offset="1" stop-color="#000000"/></linearGradient><radialGradient cx="243.1774" cy="-14.87351" r="322.31895" gradientUnits="userSpaceOnUse" id="color-3"><stop offset="0" stop-color="#000000"/><stop offset="1" stop-color="#ffffff"/></radialGradient><linearGradient x1="231.9662" y1="313.69265" x2="231.9662" y2="375.36006" gradientUnits="userSpaceOnUse" id="color-4"><stop offset="0" stop-color="#535353"/><stop offset="1" stop-color="#fdfdfd"/></linearGradient><linearGradient x1="-66.68788" y1="-46.52378" x2="-66.68788" y2="376.95838" gradientUnits="userSpaceOnUse" id="color-5"><stop offset="0" stop-color="#52ff00"/><stop offset="1" stop-color="#000000"/></linearGradient><linearGradient x1="-66.68788" y1="-46.52378" x2="-66.68788" y2="376.95838" gradientUnits="userSpaceOnUse" id="color-6"><stop offset="0" stop-color="#919191"/><stop offset="1" stop-color="#000000"/></linearGradient><linearGradient x1="237.88678" y1="66.78973" x2="237.88678" y2="181.70156" gradientUnits="userSpaceOnUse" id="color-7"><stop offset="0" stop-color="#818181"/><stop offset="1" stop-color="#000000"/></linearGradient><linearGradient x1="467.78045" y1="-40.4341" x2="467.78045" y2="377.04001" gradientUnits="userSpaceOnUse" id="color-8"><stop offset="0" stop-color="#52ff00"/><stop offset="1" stop-color="#000000"/></linearGradient><linearGradient x1="467.78047" y1="-40.4341" x2="467.78047" y2="377.04001" gradientUnits="userSpaceOnUse" id="color-9"><stop offset="0" stop-color="#919191"/><stop offset="1" stop-color="#000000"/></linearGradient><linearGradient x1="567.0626" y1="192.14147" x2="256.0531" y2="192.14147" gradientUnits="userSpaceOnUse" id="color-10"><stop offset="0" stop-color="#000000"/><stop offset="1" stop-color="#000000" stop-opacity="0"/></linearGradient><linearGradient x1="-237.9469" y1="186.14147" x2="229.00357" y2="186.14147" gradientUnits="userSpaceOnUse" id="color-11"><stop offset="0" stop-color="#000000"/><stop offset="1" stop-color="#000000" stop-opacity="0"/></linearGradient></defs><g transform="translate(239.48981,47.52378)"><g data-paper-data="{&quot;isPaintingLayer&quot;:true}" fill-rule="nonzero" stroke-linecap="butt" stroke-linejoin="miter" stroke-miterlimit="10" stroke-dasharray="" stroke-dashoffset="0" style="mix-blend-mode: normal"><g data-paper-data="{&quot;origPos&quot;:null}"><path d="M104.72907,313.30767v-297.91913h265.33551v297.91915zM146.40063,175.46015h181.99234v-102.42903h-181.99234z" fill="url(#color-1)" stroke="none" stroke-width="1"/><g fill="url(#color-2)" stroke="#000000" stroke-width="2"><path d="M104.72907,313.30767v-297.91913h265.33551v297.91915zM146.40063,175.46015h181.99234v-102.42903h-181.99234z"/></g></g><g data-paper-data="{&quot;origPos&quot;:null}" fill="url(#color-3)"><path d="M104.34407,15.38855l-183.48562,-60.52412l644.6379,2.33323l-195.04679,58.19089z" stroke="none" stroke-width="1"/><g stroke="#000000" stroke-width="2"><path d="M104.34407,15.38855l-183.48562,-60.52412l644.6379,2.33323l-195.04679,58.19089z"/></g></g><g data-paper-data="{&quot;origPos&quot;:null}" fill="url(#color-4)"><path d="M370.83453,313.69266l184.65224,61.6674l-647.04112,-1.16662l196.28342,-60.50079z" stroke="none" stroke-width="1"/><g stroke="#000000" stroke-width="2"><path d="M370.83453,313.69266l184.65224,61.6674l-647.04112,-1.16662l196.28342,-60.50079z"/></g></g><g data-paper-data="{&quot;origPos&quot;:null}"><path d="M-223.26551,-46.51218h3.61652l3.91983,0.01166l4.21149,0.01167l4.4798,0.02334l4.70147,0.01167l4.8998,0.02334l5.08646,0.01167l5.23811,0.02332l5.35478,0.02334l5.45977,0.02334l5.52978,0.02334l5.57642,0.02332l5.5881,0.02334l5.57644,0.035l5.54143,0.02334l5.47144,0.02332l5.37811,0.02332l5.27311,0.02334l5.12145,0.035l4.94647,0.02334l4.75979,0.02334l4.52648,0.02332l4.26981,0.02334l3.98984,0.01167l3.68652,0.02332l3.35986,0.01167l2.99821,0.02332l2.60156,0.01167l2.19324,0.01167l1.76158,0.01166h1.28329l0.7933,0.01167h0.26832l190.91697,61.2941v297.91915l-119.20498,36.10681l84.11313,-28.51213l-1.23661,-269.34868l-121.68988,-33.79691l3.27819,342.4256l-41.1466,12.45947l-147.16881,4.31649l-0.01167,-0.78163v-2.28657l-0.01167,-3.72151l-0.02332,-5.06312l-0.01167,-6.33474l-0.02334,-7.52467l-0.03499,-8.64464l-0.02334,-9.67127l-0.03499,-10.62788l-0.02334,-11.49118l-0.03499,-12.29615l-0.03499,-13.00779l-0.03499,-13.63776l-0.03499,-14.19773l-0.02334,-14.67605l-0.03499,-15.07269l-0.02334,-15.3877l-0.03499,-15.62101l-0.02334,-15.78434l-0.02334,-15.866l-0.01166,-15.866l-0.01167,-15.78434l-0.01167,-15.63268l-0.01166,-15.38768v-15.07269l0.01166,-14.67605l0.01167,-14.19774l0.01167,-13.64943l0.03499,-13.00779l0.02334,-12.28449l0.04666,-11.50284l0.04667,-10.62788l0.05833,-9.67125l0.07,-8.64464l0.08166,-7.53635l0.08166,-6.3464l0.09333,-5.06311l0.11666,-3.72151l0.11666,-2.29823l0.12833,-0.78163l0.67664,-0.01167l1.17829,-0.01166l1.64494,-0.01167h2.09992h2.50822h2.90488z" fill="url(#color-5)" stroke="none" stroke-width="1"/><g fill="url(#color-6)" stroke="#000000" stroke-width="2"><path d="M-223.26551,-46.51218h3.61652l3.91983,0.01166l4.21149,0.01167l4.4798,0.02334l4.70147,0.01167l4.8998,0.02334l5.08646,0.01167l5.23811,0.02332l5.35478,0.02334l5.45977,0.02334l5.52978,0.02334l5.57642,0.02332l5.5881,0.02334l5.57644,0.035l5.54143,0.02334l5.47144,0.02332l5.37811,0.02332l5.27311,0.02334l5.12145,0.035l4.94647,0.02334l4.75979,0.02334l4.52648,0.02332l4.26981,0.02334l3.98984,0.01167l3.68652,0.02332l3.35986,0.01167l2.99821,0.02332l2.60156,0.01167l2.19324,0.01167l1.76158,0.01166h1.28329l0.7933,0.01167h0.26832l190.91697,61.2941v297.91915l-119.20498,36.10681l84.11313,-28.51213l-1.23661,-269.34868l-121.68988,-33.79691l3.27819,342.4256l-41.1466,12.45947l-147.16881,4.31649l-0.01167,-0.78163v-2.28657l-0.01167,-3.72151l-0.02332,-5.06312l-0.01167,-6.33474l-0.02334,-7.52467l-0.03499,-8.64464l-0.02334,-9.67127l-0.03499,-10.62788l-0.02334,-11.49118l-0.03499,-12.29615l-0.03499,-13.00779l-0.03499,-13.63776l-0.03499,-14.19773l-0.02334,-14.67605l-0.03499,-15.07269l-0.02334,-15.3877l-0.03499,-15.62101l-0.02334,-15.78434l-0.02334,-15.866l-0.01166,-15.866l-0.01167,-15.78434l-0.01167,-15.63268l-0.01166,-15.38768v-15.07269l0.01166,-14.67605l0.01167,-14.19774l0.01167,-13.64943l0.03499,-13.00779l0.02334,-12.28449l0.04666,-11.50284l0.04667,-10.62788l0.05833,-9.67125l0.07,-8.64464l0.08166,-7.53635l0.08166,-6.3464l0.09333,-5.06311l0.11666,-3.72151l0.11666,-2.29823l0.12833,-0.78163l0.67664,-0.01167l1.17829,-0.01166l1.64494,-0.01167h2.09992h2.50822h2.90488z" data-paper-data="{&quot;origPos&quot;:null}"/></g></g><g data-paper-data="{&quot;origPos&quot;:null}" fill="url(#color-7)" stroke-width="2"><path d="M135.80773,181.70156v-114.91183h204.15809v114.91183zM146.89058,175.46015h181.99234v-102.42903h-181.99234z" stroke="none"/><g stroke="#000000"><path d="M135.80773,181.70156v-114.91183h204.15809v114.91183zM146.89058,175.46015h181.99234v-102.42903h-181.99234z"/></g></g><g data-paper-data="{&quot;origPos&quot;:null}" fill="#2b2b2b" stroke="none"><path d="M146.40063,73.03112h181.99234v102.42903h-181.99234z" stroke-width="1"/><g stroke-width="2"><path d="M146.40063,73.03112h181.99234v102.42903h-181.99234z"/></g></g><g data-paper-data="{&quot;origPos&quot;:null}"><path d="M513.55851,360.20572l3.27821,-342.44894l-121.68988,33.79691l-1.23661,269.34868l35.15019,11.91117l-58.99585,-19.12087v-298.30412l195.43179,-55.82265v417.47411z" fill="url(#color-8)" stroke="none" stroke-width="1"/><g fill="url(#color-9)" stroke="#080d04" stroke-width="2"><path d="M513.55851,360.20572l3.27821,-342.44894l-121.68988,33.79691l-1.23661,269.34868l35.15019,11.91117l-58.99585,-19.12087v-298.30412l195.43179,-55.82265v417.47411z" data-paper-data="{&quot;origPos&quot;:null}"/></g></g><path d="M256.0531,388.17172v-392.06049h311.00949v392.06048z" data-paper-data="{&quot;origPos&quot;:null,&quot;index&quot;:null}" fill="url(#color-10)" stroke="none" stroke-width="0"/><path d="M-237.9469,382.17171v-392.06048h466.95047v392.06049z" data-paper-data="{&quot;origPos&quot;:null}" fill="url(#color-11)" stroke="none" stroke-width="0"/></g></g></svg>