<svg version="1.1" xmlns="http://www.w3.org/2000/svg" xmlns:xlink="http://www.w3.org/1999/xlink" width="746.23724" height="568.74797" viewBox="0,0,746.23724,568.74797"><g transform="translate(138.63664,70.07538)"><g data-paper-data="{&quot;isPaintingLayer&quot;:true}" fill="none" fill-rule="nonzero" stroke="#000000" stroke-width="4" stroke-linecap="round" stroke-linejoin="miter" stroke-miterlimit="10" stroke-dasharray="" stroke-dashoffset="0" style="mix-blend-mode: normal"><path d="M-110.6006,-68.07538l701.2012,3.21643"/><path d="M-105.6006,-54.06637l701.2012,3.21643"/><path d="M-105.6006,-40.55286l701.2012,3.21643"/><path d="M-100.6006,-26.54385l701.2012,3.21643"/><path d="M-105.6006,-13.52583l701.2012,3.21643"/><path d="M-100.6006,0.48318l701.2012,3.21643"/><path d="M-100.6006,13.99669l701.2012,3.21643"/><path d="M-95.6006,28.0057l701.2012,3.21643"/><path d="M-125.12012,42.02973l701.2012,3.21643"/><path d="M-120.12012,56.03874l701.2012,3.21643"/><path d="M-120.12012,69.55225l701.2012,3.21643"/><path d="M-115.12012,83.56126l701.2012,3.21643"/><path d="M-120.12012,96.57928l701.2012,3.21643"/><path d="M-115.12012,110.58829l701.2012,3.21643"/><path d="M-115.12012,124.1018l701.2012,3.21643"/><path d="M-110.12012,138.11081l701.2012,3.21643"/><path d="M-122.11712,151.63933l701.2012,3.21643"/><path d="M-117.11712,165.64834l701.2012,3.21643"/><path d="M-117.11712,179.16186l701.2012,3.21643"/><path d="M-112.11712,193.17087l701.2012,3.21643"/><path d="M-117.11712,206.18888l701.2012,3.21643"/><path d="M-112.11712,220.19789l701.2012,3.21643"/><path d="M-112.11712,233.71141l701.2012,3.21643"/><path d="M-107.11712,247.72042l701.2012,3.21643"/><path d="M-136.63664,261.74444l701.2012,3.21643"/><path d="M-131.63664,275.75345l701.2012,3.21643"/><path d="M-131.63664,289.26696l701.2012,3.21643"/><path d="M-126.63664,303.27597l701.2012,3.21643"/><path d="M-131.63664,316.29399l701.2012,3.21643"/><path d="M-126.63664,330.303l701.2012,3.21643"/><path d="M-126.63664,343.81651l701.2012,3.21643"/><path d="M-121.63664,357.82552l701.2012,3.21643"/><path d="M-108.61862,369.34204l701.2012,3.21643"/><path d="M-103.61862,383.35105l701.2012,3.21643"/><path d="M-133.13814,397.37507l701.2012,3.21643"/><path d="M-128.13814,411.38408l701.2012,3.21643"/><path d="M-128.13814,424.8976l701.2012,3.21643"/><path d="M-123.13814,438.90661l701.2012,3.21643"/><path d="M-128.13814,451.92462l701.2012,3.21643"/><path d="M-123.13814,465.93363l701.2012,3.21643"/><path d="M-123.13814,479.44715l701.2012,3.21643"/><path d="M-118.13814,493.45616l701.2012,3.21643"/></g></g></svg>