<svg version="1.1" xmlns="http://www.w3.org/2000/svg" xmlns:xlink="http://www.w3.org/1999/xlink" width="192" height="394"><defs><linearGradient x1="477.79806" y1="79.01039" x2="477.79806" y2="297.01039" gradientUnits="userSpaceOnUse" id="color-1"><stop offset="0" stop-color="#a8a8a8"/><stop offset="1" stop-color="#000000"/></linearGradient><linearGradient x1="555.55899" y1="79.01039" x2="555.55899" y2="471.01039" gradientUnits="userSpaceOnUse" id="color-2"><stop offset="0" stop-color="#a8a8a8"/><stop offset="1" stop-color="#000000"/></linearGradient></defs><g transform="translate(-433.05899,-78.01039)"><g data-paper-data="{&quot;isPaintingLayer&quot;:true}" fill="none" fill-rule="nonzero" stroke="none" stroke-width="none" stroke-linecap="none" stroke-linejoin="miter" stroke-miterlimit="10" stroke-dasharray="" stroke-dashoffset="0" font-family="none" font-weight="none" font-size="none" text-anchor="none" style="mix-blend-mode: normal"><g data-paper-data="{&quot;origPos&quot;:null}"><path d="M522.365,358.01039c0,0 -16.66065,-13.03572 -26.13106,-46.22617c-8.70908,-30.52225 -7.25965,-82.77383 -7.25965,-82.77383" data-paper-data="{&quot;origPos&quot;:null}" fill="none" stroke="#00ff94" stroke-width="5.5" stroke-linecap="round"/><path d="M518.2199,375.09005c0,0 -16.76459,-11.14933 -26.51563,-43.25499c-8.96715,-29.52467 -7.96743,-81.91448 -7.96743,-81.91448" data-paper-data="{&quot;origPos&quot;:null,&quot;origRot&quot;:0}" fill="none" stroke="#ff0000" stroke-width="5.5" stroke-linecap="round"/><path d="M535.05899,357.01039c0,0 -16.66065,-13.03572 -26.13106,-46.22617c-8.70908,-30.52225 -7.25965,-82.77383 -7.25965,-82.77383" data-paper-data="{&quot;origPos&quot;:null}" fill="none" stroke="#0057ff" stroke-width="5.5" stroke-linecap="round"/><path d="M434.05899,297.01039v-218h87.47814v218z" data-paper-data="{&quot;origPos&quot;:null}" fill="url(#color-1)" stroke="#000000" stroke-width="2" stroke-linecap="butt"/><path d="M441.80729,279.01039v-187h79.72985v187z" data-paper-data="{&quot;origPos&quot;:null}" fill="#000000" stroke="#000000" stroke-width="2" stroke-linecap="butt"/></g><path d="M487.05899,471.01039v-392h137v392z" data-paper-data="{&quot;origPos&quot;:null}" fill="url(#color-2)" stroke="#000000" stroke-width="2" stroke-linecap="butt"/></g></g></svg>