<svg version="1.1" xmlns="http://www.w3.org/2000/svg" xmlns:xlink="http://www.w3.org/1999/xlink" width="129.68106" height="84.43971" viewBox="0,0,129.68106,84.43971"><g transform="translate(-7.2412,-249.21401)"><g data-paper-data="{&quot;isPaintingLayer&quot;:true}" fill="#4ce060" fill-rule="nonzero" stroke="none" stroke-width="0" stroke-linecap="butt" stroke-linejoin="miter" stroke-miterlimit="10" stroke-dasharray="" stroke-dashoffset="0" style="mix-blend-mode: normal"><path d="M89.72467,306.59094l37.51423,-21.62475l7.2739,7.51085l-38.26131,22.37183z"/><path d="M127.42263,294.28202v-9.49963h4.86028v9.49963z"/><path d="M132.2829,294.28202v-11.04609h3.97659v11.04609z"/><path d="M127.05172,293.8402l0.37091,-16.12729h9.49963l-0.33081,16.52151c0,0 -0.95098,-0.02933 -1.57358,-0.05578c-1.53353,-0.06515 -7.96614,-0.33844 -7.96614,-0.33844z"/><path d="M7.2412,261.36471v-12.1507h9.05779v12.1507z"/><path d="M7.2412,305.10722v-55.45136h9.49963v55.45136z"/><path d="M60.27822,313.93625l-50.72614,-20.85724l6.72056,-8.48625l52.10592,22.43413z"/><path d="M59.46656,333.65372l-0.08273,-20.41612l12.72172,-0.19711l-0.08273,20.61323z"/><path d="M60.56453,314.00883l-0.96487,-9.29122l36.56493,0.33217c0,0 0.92123,9.97673 0.08228,9.94072c-3.80366,-0.16327 -35.68234,-0.98167 -35.68234,-0.98167z"/><path d="M77.51476,307.48351l0.46917,-44.56826h12.01617l-0.41845,44.91062l-12.06687,-0.34236z"/></g></g></svg>