<svg version="1.1" xmlns="http://www.w3.org/2000/svg" xmlns:xlink="http://www.w3.org/1999/xlink" width="432.90643" height="400.56285" viewBox="0,0,432.90643,400.56285"><defs><radialGradient cx="240" cy="180" r="136.897" gradientUnits="userSpaceOnUse" id="color-1"><stop offset="0" stop-color="#ffe35c" stop-opacity="0.67059"/><stop offset="1" stop-color="#ffe35c" stop-opacity="0"/></radialGradient><radialGradient cx="240" cy="180" r="216.45322" gradientUnits="userSpaceOnUse" id="color-2"><stop offset="0" stop-color="#ffee9b" stop-opacity="0"/><stop offset="1" stop-color="#ffee9b" stop-opacity="0.16863"/></radialGradient></defs><g transform="translate(-23.54678,20.28142)"><g data-paper-data="{&quot;isPaintingLayer&quot;:true}" fill-rule="nonzero" stroke="none" stroke-width="0" stroke-linecap="butt" stroke-linejoin="miter" stroke-miterlimit="10" stroke-dasharray="" stroke-dashoffset="0" style="mix-blend-mode: normal"><path d="M376.897,180c0,72.53271 -61.29087,131.33209 -136.897,131.33209c-75.60613,0 -136.897,-58.79938 -136.897,-131.33208c0,-72.53271 61.29087,-131.33208 136.897,-131.33208c75.60613,0 136.897,58.79938 136.897,131.33209z" fill="url(#color-1)"/><path d="M456.45322,180c0,110.61238 -96.90941,200.28143 -216.45322,200.28143c-119.54381,0 -216.45321,-89.66904 -216.45321,-200.28142c0,-110.61238 96.9094,-200.28142 216.45321,-200.28142c119.54381,0 216.45322,89.66905 216.45322,200.28143z" fill="url(#color-2)"/></g></g></svg>