<svg version="1.1" xmlns="http://www.w3.org/2000/svg" xmlns:xlink="http://www.w3.org/1999/xlink" width="65.62736" height="270.71162" viewBox="0,0,65.62736,270.71162"><g transform="translate(-217.18632,-54.64419)"><g data-paper-data="{&quot;isPaintingLayer&quot;:true}" fill-rule="nonzero" stroke="none" stroke-width="0" stroke-linecap="butt" stroke-linejoin="miter" stroke-miterlimit="10" stroke-dasharray="" stroke-dashoffset="0" style="mix-blend-mode: normal"><path d="M262.6469,274.68693l-9.44574,30.62628l-25.99023,0.04259l-9.61382,-30.01749l-0.41079,-181.93179l6.56049,-38.70743l31.1878,-0.0549l7.87907,38.6885z" fill="#0b3539"/><path d="M267.6469,279.68694l-9.44574,30.62628l-25.99023,0.04259l-9.61382,-30.01749l-0.41079,-181.93179l6.56049,-38.70743l31.1878,-0.0549l7.87907,38.6885z" fill="#14585f"/><path d="M272.6469,284.68694l-9.44574,30.62628l-25.99023,0.04259l-9.61382,-30.01749l-0.41079,-181.93179l6.56049,-38.70743l31.1878,-0.0549l7.87907,38.6885z" fill="#1a7680"/><path d="M277.6469,289.68694l-9.44574,30.62628l-25.99023,0.04259l-9.61382,-30.01749l-0.41079,-181.93179l6.56049,-38.70743l31.1878,-0.0549l7.87907,38.6885z" fill="#219daa"/><path d="M282.6469,294.68694l-9.44574,30.62628l-25.99023,0.04259l-9.61382,-30.01749l-0.41079,-181.93179l6.56049,-38.70743l31.1878,-0.0549l7.87907,38.6885z" fill="#29bccc"/></g></g></svg>