<svg version="1.1" xmlns="http://www.w3.org/2000/svg" xmlns:xlink="http://www.w3.org/1999/xlink" width="69.57708" height="133.01501" viewBox="0,0,69.57708,133.01501"><defs><linearGradient x1="205.21146" y1="180.00005" x2="274.78854" y2="180.00005" gradientUnits="userSpaceOnUse" id="color-1"><stop offset="0" stop-color="#969696"/><stop offset="1" stop-color="#969696" stop-opacity="0"/></linearGradient><linearGradient x1="227.03956" y1="117.58531" x2="250.91405" y2="117.58531" gradientUnits="userSpaceOnUse" id="color-2"><stop offset="0" stop-color="#969696"/><stop offset="1" stop-color="#969696" stop-opacity="0"/></linearGradient><linearGradient x1="210.74269" y1="230.97559" x2="269.25732" y2="230.97559" gradientUnits="userSpaceOnUse" id="color-3"><stop offset="0" stop-color="#7cff59"/><stop offset="1" stop-color="#7cff59" stop-opacity="0"/></linearGradient><linearGradient x1="210.74269" y1="212.34469" x2="269.25733" y2="212.34469" gradientUnits="userSpaceOnUse" id="color-4"><stop offset="0" stop-color="#7cff59"/><stop offset="1" stop-color="#7cff59" stop-opacity="0"/></linearGradient><linearGradient x1="210.74269" y1="193.96508" x2="269.25732" y2="193.96508" gradientUnits="userSpaceOnUse" id="color-5"><stop offset="0" stop-color="#7cff59"/><stop offset="1" stop-color="#7cff59" stop-opacity="0"/></linearGradient><linearGradient x1="210.74269" y1="175.33418" x2="269.25733" y2="175.33418" gradientUnits="userSpaceOnUse" id="color-6"><stop offset="0" stop-color="#7cff59"/><stop offset="1" stop-color="#7cff59" stop-opacity="0"/></linearGradient><linearGradient x1="210.74269" y1="156.57948" x2="269.25732" y2="156.57948" gradientUnits="userSpaceOnUse" id="color-7"><stop offset="0" stop-color="#7cff59"/><stop offset="1" stop-color="#7cff59" stop-opacity="0"/></linearGradient><linearGradient x1="210.74269" y1="137.94858" x2="269.25733" y2="137.94858" gradientUnits="userSpaceOnUse" id="color-8"><stop offset="0" stop-color="#7cff59"/><stop offset="1" stop-color="#7cff59" stop-opacity="0"/></linearGradient></defs><g transform="translate(-205.21146,-109.39977)"><g data-paper-data="{&quot;isPaintingLayer&quot;:true}" fill-rule="nonzero" stroke="none" stroke-width="0" stroke-linecap="butt" stroke-linejoin="miter" stroke-miterlimit="10" stroke-dasharray="" stroke-dashoffset="0" style="mix-blend-mode: normal"><path d="M205.21146,242.41479v-124.82947h69.57708v124.82947z" fill="url(#color-1)"/><path d="M227.03956,125.77086v-16.37108h23.87449v16.37108z" fill="url(#color-2)"/><path d="M210.74269,239.16113v-16.37108h58.51463v16.37108z" fill="url(#color-3)"/><path d="M210.74269,220.53022v-16.37108h58.51463v16.37108z" fill="url(#color-4)"/><path d="M210.74269,202.15062v-16.37108h58.51463v16.37108z" fill="url(#color-5)"/><path d="M210.74269,183.51971v-16.37108h58.51463v16.37108z" fill="url(#color-6)"/><path d="M210.74269,164.76502v-16.37108h58.51463v16.37108z" fill="url(#color-7)"/><path d="M210.74269,146.13411v-16.37108h58.51463v16.37108z" fill="url(#color-8)"/></g></g></svg>