<svg version="1.1" xmlns="http://www.w3.org/2000/svg" xmlns:xlink="http://www.w3.org/1999/xlink" width="617.95956" height="564.49317" viewBox="0,0,617.95956,564.49317"><defs><linearGradient x1="248.3917" y1="-8.91592" x2="248.3917" y2="472.24317" gradientUnits="userSpaceOnUse" id="color-1"><stop offset="0" stop-color="#3c3c3c"/><stop offset="1" stop-color="#000000"/></linearGradient><linearGradient x1="248.39176" y1="-8.91592" x2="248.39176" y2="472.24317" gradientUnits="userSpaceOnUse" id="color-2"><stop offset="0" stop-color="#3c3c3c"/><stop offset="1" stop-color="#000000"/></linearGradient><linearGradient x1="244.40695" y1="78.72981" x2="244.40695" y2="259.69057" gradientUnits="userSpaceOnUse" id="color-3"><stop offset="0" stop-color="#404040"/><stop offset="1" stop-color="#000000"/></linearGradient><linearGradient x1="242.51563" y1="181.5" x2="486.51564" y2="181.5" gradientUnits="userSpaceOnUse" id="color-4"><stop offset="0" stop-color="#000000" stop-opacity="0"/><stop offset="1" stop-color="#000000"/></linearGradient><linearGradient x1="-111.48436" y1="208" x2="236.51563" y2="208" gradientUnits="userSpaceOnUse" id="color-5"><stop offset="0" stop-color="#000000"/><stop offset="1" stop-color="#000000" stop-opacity="0"/></linearGradient><linearGradient x1="243.51563" y1="-91" x2="243.51563" y2="139" gradientUnits="userSpaceOnUse" id="color-6"><stop offset="0" stop-color="#000000"/><stop offset="1" stop-color="#000000" stop-opacity="0"/></linearGradient><linearGradient x1="239.51563" y1="375" x2="239.51563" y2="145" gradientUnits="userSpaceOnUse" id="color-7"><stop offset="0" stop-color="#000000"/><stop offset="1" stop-color="#000000" stop-opacity="0"/></linearGradient></defs><g transform="translate(111.48437,91.25)"><g data-paper-data="{&quot;isPaintingLayer&quot;:true}" fill-rule="nonzero" stroke-linecap="butt" stroke-linejoin="miter" stroke-miterlimit="10" stroke-dasharray="" stroke-dashoffset="0" style="mix-blend-mode: normal"><g><path d="M-8.69174,472.24314v-481.15903h514.16694v481.15906zM72.05939,249.6103h352.66461v-165.42963h-352.66461z" fill="url(#color-1)" stroke="none" stroke-width="1"/><g fill="url(#color-2)" stroke="#000000" stroke-width="2"><path d="M-8.69174,472.24314v-481.15903h514.16694v481.15906zM72.05939,249.6103h352.66461v-165.42963h-352.66461z"/></g></g><g fill="url(#color-3)" stroke-width="2"><path d="M51.53247,259.69057v-180.96076h385.74898v180.96076zM72.4731,249.86175h343.86763v-161.3031h-343.86763z" stroke="none"/><g stroke="#000000"><path d="M51.53247,259.69057v-180.96076h385.74898v180.96076zM72.4731,249.86175h343.86763v-161.3031h-343.86763z"/></g></g><path d="M242.51563,380v-397h244v397z" fill="url(#color-4)" stroke="none" stroke-width="0"/><path d="M-111.48436,430v-444h348v444z" fill="url(#color-5)" stroke="none" stroke-width="0"/><path d="M1.51564,139v-230h484v230z" fill="url(#color-6)" stroke="#000000" stroke-width="0.5"/><path d="M481.51564,145v230h-484v-230z" data-paper-data="{&quot;index&quot;:null}" fill="url(#color-7)" stroke="#000000" stroke-width="0.5"/></g></g></svg>